<?xml version="1.0" encoding="UTF-8"?>
<svg id="Calque_2" data-name="Calque 2" xmlns="http://www.w3.org/2000/svg" xmlns:xlink="http://www.w3.org/1999/xlink" viewBox="0 0 3268.2 4180.54">
  <defs>
    <style>
      .cls-1 {
        fill: none;
      }

      .cls-2 {
        fill: url(#Dégradé_sans_nom_8);
      }

      .cls-3 {
        fill: #c8af73;
      }

      .cls-4 {
        fill: #fff;
      }

      .cls-5 {
        fill: url(#Dégradé_sans_nom);
      }

      .cls-6 {
        fill: url(#Dégradé_sans_nom_15);
      }

      .cls-7 {
        fill: #dc0123;
      }
    </style>
    <linearGradient id="Dégradé_sans_nom" data-name="Dégradé sans nom" x1="219.42" y1="1310.41" x2="3048.78" y2="3858.31" gradientTransform="translate(0 5007.06) scale(1 -1)" gradientUnits="userSpaceOnUse">
      <stop offset="0" stop-color="#bc9758"/>
      <stop offset=".12" stop-color="#bd985a"/>
      <stop offset=".2" stop-color="#c19e63"/>
      <stop offset=".27" stop-color="#c7a873"/>
      <stop offset=".34" stop-color="#d0b689"/>
      <stop offset=".4" stop-color="#dcc8a5"/>
      <stop offset=".44" stop-color="#e6d7bc"/>
      <stop offset=".48" stop-color="#e3d2b5"/>
      <stop offset=".7" stop-color="#d8bf93"/>
      <stop offset=".88" stop-color="#d1b37f"/>
      <stop offset="1" stop-color="#cfaf78"/>
    </linearGradient>
    <radialGradient id="Dégradé_sans_nom_15" data-name="Dégradé sans nom 15" cx="-548.36" cy="3934.13" fx="-548.36" fy="3934.13" r="29.7" gradientTransform="translate(39418.55 182092.91) scale(69.01 -45.2)" gradientUnits="userSpaceOnUse">
      <stop offset=".27" stop-color="#dc0123"/>
      <stop offset=".35" stop-color="#e30613" stop-opacity=".98"/>
      <stop offset=".45" stop-color="#e30613" stop-opacity=".92"/>
      <stop offset=".55" stop-color="#e30613" stop-opacity=".82"/>
      <stop offset=".66" stop-color="#e30613" stop-opacity=".67"/>
      <stop offset=".77" stop-color="#e30613" stop-opacity=".49"/>
      <stop offset=".88" stop-color="#e30613" stop-opacity=".26"/>
      <stop offset="1" stop-color="#e30613" stop-opacity="0"/>
    </radialGradient>
    <linearGradient id="Dégradé_sans_nom_8" data-name="Dégradé sans nom 8" x1="2651.15" y1="3922.01" x2="617.04" y2="1222.32" gradientTransform="translate(0 5007.06) scale(1 -1)" gradientUnits="userSpaceOnUse">
      <stop offset="0" stop-color="#0075bf"/>
      <stop offset=".09" stop-color="#026cb4"/>
      <stop offset=".26" stop-color="#085498"/>
      <stop offset=".45" stop-color="#12326e"/>
      <stop offset=".64" stop-color="#112e68"/>
      <stop offset=".75" stop-color="#0f2658"/>
      <stop offset="1" stop-color="#181d4b"/>
    </linearGradient>
  </defs>
  <g id="Calque_1-2" data-name="Calque 1">
    <g>
      <rect class="cls-1" width="3268.2" height="4180.54"/>
      <path class="cls-5" d="M0,3453l1634.1,727.42,1634.09-727.42V1392.4l-1634.09-727.44L0,1392.4v2060.6Z"/>
      <path class="cls-6" d="M0,3453l1634.1,727.42,1634.09-727.42V1392.4l-1634.09-727.44L0,1392.4v2060.6Z"/>
      <path class="cls-2" d="M884.79,3700.03c128.21,50.63,255.27,103.76,382.9,155.63l366.41,153.35,366.41-153.47c127.63-51.88,254.69-105.12,382.9-155.63,127.86-51.4,256.19-101.56,384.74-151.36,128.9-49,257.69-98.23,387.76-144.2v-1938.97l-1521.82-677.52L112.3,1465.38v1939.06c130.06,46.12,258.84,95.23,387.75,144.35,128.55,49.8,257,99.84,384.74,151.36v-.12Z"/>
      <path class="cls-4" d="M2768.17,3548.68c-128.55,49.8-257,99.84-384.74,151.36-128.21,50.6-255.27,103.76-382.9,155.63l-366.41,153.44-366.41-153.32c-127.63-51.88-254.81-105.03-382.9-155.63-127.86-51.52-256.19-101.56-384.74-151.36-128.79-49-257.57-98.23-387.75-144.35,123.48,61.56,248.35,119.88,373.22,178.59,125.1,57.85,250.31,115.49,376.1,171.64,125.44,57.07,251.93,111.6,377.94,167.39l379.67,163.47,14.87,6.35,14.87-6.35,379.67-163.35c126.02-55.8,252.5-110.2,377.94-167.28,125.79-56.15,251-113.79,376.1-171.67,124.75-58.68,249.61-117.12,373.11-178.68-130.19,46-258.96,95.23-387.75,144.23l.12-.12Z"/>
      <path class="cls-4" d="M1450.56,3467.84h100.42v-139.15h272.56v-79.41h-272.56v-97.55h314.18v-81.6h-414.61v397.71Z"/>
      <path class="cls-4" d="M2482.35,3151.74v-81.6h-414.61v397.71h100.42v-139.15h272.68v-79.41h-272.68v-97.55h314.18Z"/>
      <path class="cls-4" d="M1247.86,3151.74v-81.6h-414.61v397.71h100.42v-139.15h272.68v-79.41h-272.68v-97.55h314.18Z"/>
      <path class="cls-7" d="M2162.86,1259.48c-58.92-49.57-148.85-27.9-176.64-86.81-26.4,29.4-38.74,65.14-20.18,96.03-21.68,10.84-49.58,15.45-72.87,4.61-23.29,31.01-21.67,69.75-7.72,93.03-18.56,13.95-46.46,23.29-71.25,17.06,7.73,27.9,34.13,48.07,60.42,48.07-4.61,20.18-12.45,29.4-29.4,35.62,21.67,41.85,93.05,52.68,141.01,35.62-4.61-4.61-13.95-20.18-13.95-44.96,0-66.87,56.38-110.9,134.32-110.9,32.05,0,52.58,4.5,63.99,6.23,4.84.69,8.53,1.38,11.76-6.23,8.42-20.29,16.14-58.1-19.49-87.5v.11ZM2316.32,1543.08c-31.01-6.22-89.93-9.34-99.15-49.57-26.41,78.97,21.67,161.17,92.93,161.17,40.35,0,60.42-26.4,60.42-57.3,0-26.4-20.18-48.07-54.3-54.18l.11-.12Z"/>
      <path class="cls-4" d="M1463.93,1628.27c-172.02-148.83-482.06-66.63-604.5,89.92-167.41,212.35-85.21,486.61,7.73,584.26-65.14-382.74,173.64-698.96,596.66-674.18h.12ZM1569.66,1717.04c108.03,15.1,200.27,54.87,281.21,103.3-29.29-218.7-197.39-395.54-463.38-395.54-113.91,0-232.32,27.44-331.25,96.61,242.93-71.82,437.2,18.79,513.42,195.64ZM2282.31,2082.37c76.79-12.22,135.7-77.24,135.7-152.64,0-49.11-22.25-135.81-81.4-183.65,38.74,114.71,17.06,254.09-54.3,336.28ZM2313.33,1477.94c-97.66-21.67-116.22-66.64-65.14-158.05-27.9,31.01-74.37,82.08-55.8,125.54,20.18,43.35,106.88,34.12,120.83,32.51h.12ZM2135.08,1445.43c13.95,0,24.79-10.84,24.79-24.79,0-12.45-10.84-23.29-24.79-23.29-12.45,0-23.29,10.84-23.29,23.29,0,13.95,10.84,24.79,23.29,24.79ZM2052.99,1629.88c31.36,69.51,57.07,174.89,57.07,251.2,0,311.84-257.57,416.87-404.11,649.51,169.02-129.35,417.95-242.79,509.38-456.64,60.42-140.99,13.72-346.54-162.34-444.07ZM2260.06,2114.19c-9.22,0-18.56-1.04-27.9-3-32.51,65.25-78.98,121.28-132.25,171.2,19.95,4.61,40.01,7.15,60.53,7.15,153.58,0,250.19-128.89,258.27-262.85-41.62,55.57-95.35,87.5-158.65,87.5ZM1141.56,2228.09c-96.16,181.34-13.95,342.51,156.58,319.22-108.5-37.24-182.86-190.57-156.58-319.22ZM2060.94,2012.05c-141.35-110.33-319.83-270.57-586.06-270.57-323.98,0-508.34,232.42-508.34,502.06,0,156.55,76.33,279.33,111.61,314.61-89.7-278.41,97.89-583.68,388.2-583.68,185.75,0,332.17,142.49,477.79,235.75,51.77-59.49,94.2-121.39,116.91-198.29l-.12.12ZM1800.95,2148.66c-66.64-47.27-135.01-93.04-208.34-119.55-27.79,172.81-94.66,327.87-94.77,513.71,0,127.16,31.13,233.8,127.4,365.56-24.79-68.59-35.05-118.97-35.05-181.23.12-222.73,133.17-377.21,210.76-578.49Z"/>
      <path class="cls-3" d="M1033.41,332.82l-179.4-126.93h220.68L1143.86,0l69.06,205.9h220.68l-179.4,126.93,74.02,195.75-184.36-81.97-184.47,81.97,74.02-195.75Z"/>
      <path class="cls-3" d="M2014.13,332.82l-179.4-126.93h220.68L2124.47,0l69.18,205.9h220.56l-179.4,126.93,74.02,195.87-184.36-82.08-184.36,82.08,74.02-195.87Z"/>
    </g>
  </g>
</svg>